# xmcd
#
# Track frame offsets: 
#        150
#        14225
#        28947
#        49434
#        63955
#        77471
#        94622
#        110357
#        127271
#        143935
#        159003
#        168330
#
# Disc length: 2446 seconds
#
# Revision: 0
# Processed by: cddbd v1.5.2PL0 Copyright (c) Steve Scherf et al.
# Submitted via: ExactAudioCopy v1.1
#
DISCID=9f098c0c
DTITLE=Stewart, Dave &Lindsey - Spitballin
DYEAR=2016
DGENRE=Blues
TTITLE0=Leave this town
TTITLE1=Another lie
TTITLE2=Friend zone
TTITLE3=Lonely
TTITLE4=When dogs run away
TTITLE5=Look at those flames
TTITLE6=Two people
TTITLE7=Run from you
TTITLE8=Confidence
TTITLE9=Crocodile
TTITLE10=Alcohol
TTITLE11=Dear god
EXTD=
EXTT0=
EXTT1=
EXTT2=
EXTT3=
EXTT4=
EXTT5=
EXTT6=
EXTT7=
EXTT8=
EXTT9=
EXTT10=
EXTT11=
PLAYORDER=
